<?xml version="1.0" encoding="UTF-8"?>
<svg width="1920px" height="828px" viewBox="0 0 1920 828" version="1.1" xmlns="http://www.w3.org/2000/svg" xmlns:xlink="http://www.w3.org/1999/xlink">
    <title></title>
    <desc></desc>
    <defs>
        <linearGradient x1="100%" y1="37.6100436%" x2="0%" y2="37.6100436%" id="linearGradient-1">
            <stop stop-color="#48BEFF" offset="0%"></stop>
            <stop stop-color="#29A4FF" offset="43.0393248%"></stop>
            <stop stop-color="#0082FF" offset="100%"></stop>
        </linearGradient>
        <linearGradient x1="100%" y1="37.6100436%" x2="0%" y2="37.6100436%" id="linearGradient-2">
            <stop stop-color="#48BEFF" offset="0%"></stop>
            <stop stop-color="#29A4FF" offset="43.0393248%"></stop>
            <stop stop-color="#0082FF" offset="100%"></stop>
        </linearGradient>
    </defs>
    <g id="" stroke="none" stroke-width="1" fill="none" fill-rule="evenodd">
        <g id="" transform="translate(0.000000, -1610.000000)">
            <g id="pricing-background" transform="translate(0.000000, 1610.000000)">
                <path d="M0,0 L1920,0 L1920,354.050409 C1812.69341,512.605606 1713.69341,613.468804 1623,656.640003 C1463,732.802009 1318,732.802009 1186,685.458059 C937.693846,596.399013 850,686.487276 520,713.246899 C339.544751,727.879974 166.211418,658.579409 0,505.345206 L0,0 Z" id="bck" fill="url(#linearGradient-1)" opacity="0.300000012"></path>
                <path d="M0,0 L1920,0 L1920,364 C1813.24055,505.375323 1714.24055,596.708656 1623,638 C1486,700 1310,700 1186,666 C912.574556,591.028507 850,687 520,713 C339.544751,727.217686 166.211418,659.884353 0,511 L0,0 Z" id="bck" fill="url(#linearGradient-2)"></path>
                <path d="M520,713 C339.544751,727.217686 166.211418,659.884353 0,511 C187.682442,618.94874 346.015775,676.615407 475,684 C606,691.5 760.740954,672.789952 854.5,655.5 C778.333906,674.576707 707.833906,689.076707 643,699 C614.753326,703.323355 573.753326,707.990022 520,713 Z" id="bck" fill="#FFFFFF" opacity="0.25"></path>
                <path d="M150,383 C310.162577,383 440,253.162577 440,93 C440,60.5017839 434.654395,29.1698231 424.794513,0 L0,0 L0,341.30459 C43.7433586,367.768749 95.1433986,383 150,383 Z" id="Oval" fill="#FFFFFF" opacity="0.07"></path>
                <path d="M1866.50817,431.326032 C1813.34743,370.45546 1735.16459,332 1648,332 C1487.83742,332 1358,461.837423 1358,622 C1358,644.948475 1360.66554,667.27438 1365.7039,688.684992 C1485.18366,694.015059 1569.44903,681.786728 1618.5,652 C1704.23812,599.934607 1771.90882,543.130171 1831.2282,473.446161 C1838.26767,465.176724 1850.02766,451.136681 1866.50817,431.326032 Z M1507.56804,674.717616 C1501.42972,658.339699 1498,640.521128 1498,622 C1498,539.157288 1565.15729,472 1648,472 C1698.1864,472 1742.61628,496.646576 1769.84598,534.496065 C1716.46261,584.176262 1674.18061,617.34424 1643,634 C1615.88041,648.486484 1570.73642,662.059023 1507.56804,674.717616 Z" id="Oval-Copy" fill="#FFFFFF" fill-rule="nonzero" opacity="0.0700000003"></path>
                <rect id="Rectangle" stroke="#FFFFFF" opacity="0.01" x="0.5" y="718.5" width="1919" height="109"></rect>
            </g>
        </g>
    </g>
</svg>