<svg width="1036" height="685" viewBox="0 0 1036 685" fill="none" xmlns="http://www.w3.org/2000/svg">
<g clip-path="url(#clip0)">
<path d="M550.254 541.964C543.576 557.669 498.476 520.432 498.476 520.432C498.476 520.432 483.677 511.533 437.334 468.754C413.805 447.038 397.886 421.178 391.583 394.43C390.568 390.284 389.925 386.129 389.659 382L433.411 372.289L440.496 388.263L464.053 441.344L509.306 484.504C509.306 484.504 556.933 526.259 550.254 541.964Z" fill="#FFB9B9"/>
<path d="M382.85 199.188L376.034 199.188V152.08H382.85C388.054 152.08 393.045 154.146 396.725 157.824C400.405 161.501 402.473 166.489 402.473 171.69V179.531C402.479 182.11 401.976 184.665 400.993 187.05C400.009 189.435 398.565 191.602 396.742 193.428C394.919 195.254 392.754 196.703 390.37 197.691C387.986 198.68 385.431 199.188 382.85 199.188Z" fill="#DFE6F5"/>
<path d="M375.068 199.188H377.001C379.662 199.188 381.819 197.033 381.819 194.374V156.935C381.819 154.276 379.662 152.12 377.001 152.12H375.068C372.407 152.12 370.25 154.276 370.25 156.935V194.374C370.25 197.033 372.407 199.188 375.068 199.188Z" fill="#535461"/>
<g opacity="0.1">
<path opacity="0.1" d="M382.851 199.189L376.035 199.189V152.081H382.851C388.055 152.081 393.046 154.147 396.726 157.824C400.406 161.502 402.474 166.49 402.474 171.691V179.531C402.48 182.111 401.977 184.666 400.994 187.05C400.01 189.435 398.566 191.602 396.743 193.428C394.92 195.254 392.755 196.703 390.371 197.692C387.987 198.68 385.432 199.189 382.851 199.189Z" fill="black"/>
<path opacity="0.1" d="M375.068 199.189H377.001C379.662 199.189 381.819 197.033 381.819 194.374V156.935C381.819 154.276 379.662 152.121 377.001 152.121H375.068C372.407 152.121 370.25 154.276 370.25 156.935V194.374C370.25 197.033 372.407 199.189 375.068 199.189Z" fill="black"/>
</g>
<path d="M344.44 193.19C344.44 193.19 325.755 260.55 340.703 285.569C355.652 310.588 239.802 289.418 232.328 266.323C232.328 266.323 269.699 223.983 264.093 183.567L344.44 193.19Z" fill="#FFB9B9"/>
<path d="M310.662 255.021C276.607 255.021 249.001 226.586 249.001 191.511C249.001 156.435 276.607 128 310.662 128C344.717 128 372.324 156.435 372.324 191.511C372.324 226.586 344.717 255.021 310.662 255.021Z" fill="#F3B4B4"/>
<path d="M314.544 283.644C314.544 283.644 263.394 287.206 238.519 258.481L162.5 283.644L185.615 522.289C185.615 522.289 103.496 594.179 174.501 611.5C245.505 628.821 361 601 433.5 591.5C424.157 527.99 398.629 524.214 398.629 524.214C398.629 524.214 367.946 436.991 388.5 398.5C409.054 360.009 385 269.5 385 269.5L335.065 262.156C335.065 262.156 331.361 283.644 314.544 283.644Z" fill="#575A89"/>
<path d="M364.327 277.799L385.318 269.916C385.318 269.916 405.028 282.051 420.957 305.978L442 371C442 371 407.061 395.406 394.931 389.682C382.802 383.958 364.327 277.799 364.327 277.799Z" fill="#575A89"/>
<path d="M188.647 283.187C188.647 283.187 175.207 280.166 161.604 283.333C148.001 286.5 117.856 409.841 125.591 411.439C133.327 413.038 224.141 417.468 224.141 417.468L188.647 283.187Z" fill="#575A89"/>
<path d="M314.425 248.02C280.37 248.02 252.763 219.585 252.763 184.51C252.763 149.434 280.37 120.999 314.425 120.999C348.48 120.999 376.087 149.434 376.087 184.51C376.087 219.585 348.48 248.02 314.425 248.02Z" fill="#FFB9B9"/>
<path d="M329.573 142.952C320.422 141.478 311.198 140.536 301.944 140.131C295.239 139.837 288.254 139.884 282.195 142.856C273.059 147.337 267.94 157.467 264.589 167.301C261.238 177.135 258.861 187.645 252.644 195.868C242.301 184.748 240.234 168.215 238.694 152.896C237.61 142.122 236.65 130.633 241.487 121.015C244.466 115.091 249.382 110.474 254.36 106.206C278.128 85.8312 300.445 76.8894 331.046 81.4657L346.142 84.7475C358.744 89.131 359.926 89.9983 361.895 87.3729C363.864 84.7475 369.698 95.3861 365.833 97.8744C370.123 97.3097 369.049 94.4123 371.083 91.9673C373.118 89.5224 378.303 100.5 375.022 105.094C375.022 105.094 376.991 106.407 379.616 103.125C382.241 99.8435 379.64 95.7551 383.554 97.8744C387.468 99.9936 387.638 104.91 388.148 114.94C388.659 124.969 382.859 156.673 377.647 159.571C372.435 162.469 375.021 163.509 367.145 159.571C359.269 155.633 361.18 154.761 354.741 150.839C347.154 146.219 338.175 144.338 329.573 142.952Z" fill="#2F2E41"/>
<path d="M351.393 88.826C345.486 87.5133 338.543 81.6048 310.043 81.6048C269.455 81.6048 241.831 133.048 241.831 170.559H236.613C236.613 130.197 265.946 77.0112 309.387 77.0112C324.616 76.857 329.734 78.3241 333.016 79.6369C336.297 80.9497 345.486 84.2315 348.768 86.2006C352.05 88.1696 351.903 90.149 351.393 88.826Z" fill="#535461"/>
<path d="M247.623 148.944H254.438V196.053H247.623C242.419 196.053 237.428 193.986 233.748 190.309C230.067 186.631 228 181.644 228 176.443V168.602C227.994 166.023 228.497 163.468 229.48 161.083C230.463 158.698 231.908 156.531 233.731 154.705C235.553 152.879 237.719 151.43 240.103 150.442C242.487 149.453 245.042 148.944 247.623 148.944Z" fill="#DFE6F5"/>
<path d="M255.406 148.984H253.472C250.811 148.984 248.654 151.14 248.654 153.799V191.238C248.654 193.897 250.811 196.053 253.472 196.053H255.406C258.067 196.053 260.224 193.897 260.224 191.238V153.799C260.224 151.14 258.067 148.984 255.406 148.984Z" fill="#535461"/>
<path opacity="0.1" d="M425.772 674.909C495.798 637.261 575.792 625.229 653.968 641.366C764.745 664.246 903.971 655.277 930.938 478.758C976.995 177.287 783.989 97.7175 783.989 97.7175C783.989 97.7175 655.64 87.2748 579.744 47.5165C471.938 -8.97831 348.713 -16.1726 240.362 31.6274C171.072 62.1699 114.012 104.7 104.262 163.093C77.0042 326.398 121.771 416.375 38.025 469.683C-45.7211 522.991 25.8497 669.348 90.0517 664.281C154.254 659.214 299.331 603.629 355.864 668.015C375.944 690.852 401.349 688.044 425.772 674.909Z" fill="#F9A826"/>
<path opacity="0.1" d="M758.021 132.595H469.085V152.015H758.021V132.595Z" fill="#F9A826"/>
<path opacity="0.1" d="M758.021 216.455H469.085V235.875H758.021V216.455Z" fill="#F9A826"/>
<path opacity="0.1" d="M758.021 303.845H469.085V323.265H758.021V303.845Z" fill="#F9A826"/>
<path opacity="0.1" d="M512.698 82.2793H494.526V132.595H512.698V82.2793Z" fill="#F9A826"/>
<path opacity="0.1" d="M512.698 90.2241H494.526V93.7551H512.698V90.2241Z" fill="#F9A826"/>
<path opacity="0.1" d="M512.698 117.589H494.526V121.12H512.698V117.589Z" fill="#F9A826"/>
<path opacity="0.1" d="M539.956 82.2793H521.784V132.595H539.956V82.2793Z" fill="#F9A826"/>
<path opacity="0.1" d="M539.956 90.2241H521.784V93.7551H539.956V90.2241Z" fill="#F9A826"/>
<path opacity="0.1" d="M539.956 117.589H521.784V121.12H539.956V117.589Z" fill="#F9A826"/>
<path opacity="0.1" d="M567.215 82.2793H549.043V132.595H567.215V82.2793Z" fill="#F9A826"/>
<path opacity="0.1" d="M567.215 90.2241H549.043V93.7551H567.215V90.2241Z" fill="#F9A826"/>
<path opacity="0.1" d="M567.215 117.589H549.043V121.12H567.215V117.589Z" fill="#F9A826"/>
<path opacity="0.1" d="M594.473 82.2793H576.301V132.595H594.473V82.2793Z" fill="#F9A826"/>
<path opacity="0.1" d="M594.473 90.2241H576.301V93.7551H594.473V90.2241Z" fill="#F9A826"/>
<path opacity="0.1" d="M594.473 117.589H576.301V121.12H594.473V117.589Z" fill="#F9A826"/>
<path opacity="0.1" d="M621.731 82.2793H603.559V132.595H621.731V82.2793Z" fill="#F9A826"/>
<path opacity="0.1" d="M621.731 90.2241H603.559V93.7551H621.731V90.2241Z" fill="#F9A826"/>
<path opacity="0.1" d="M621.731 117.589H603.559V121.12H621.731V117.589Z" fill="#F9A826"/>
<path opacity="0.1" d="M648.989 82.2793H630.817V132.595H648.989V82.2793Z" fill="#F9A826"/>
<path opacity="0.1" d="M648.989 90.2241H630.817V93.7551H648.989V90.2241Z" fill="#F9A826"/>
<path opacity="0.1" d="M648.989 117.589H630.817V121.12H648.989V117.589Z" fill="#F9A826"/>
<path opacity="0.1" d="M676.247 82.2793H658.075V132.595H676.247V82.2793Z" fill="#F9A826"/>
<path opacity="0.1" d="M676.247 90.2241H658.075V93.7551H676.247V90.2241Z" fill="#F9A826"/>
<path opacity="0.1" d="M676.247 117.589H658.075V121.12H676.247V117.589Z" fill="#F9A826"/>
<path opacity="0.1" d="M665.49 252.205L649.245 260.118L672.459 305.096L688.703 297.183L665.49 252.205Z" fill="#F9A826"/>
<path opacity="0.1" d="M669.159 259.313L652.915 267.226L654.544 270.382L670.789 262.469L669.159 259.313Z" fill="#F9A826"/>
<path opacity="0.1" d="M681.778 283.778L665.533 291.691L667.162 294.847L683.407 286.934L681.778 283.778Z" fill="#F9A826"/>
<path opacity="0.1" d="M512.698 167.021H494.526V217.337H512.698V167.021Z" fill="#F9A826"/>
<path opacity="0.1" d="M512.698 174.966H494.526V178.497H512.698V174.966Z" fill="#F9A826"/>
<path opacity="0.1" d="M512.698 202.331H494.526V205.862H512.698V202.331Z" fill="#F9A826"/>
<path opacity="0.1" d="M539.956 167.021H521.784V217.337H539.956V167.021Z" fill="#F9A826"/>
<path opacity="0.1" d="M539.956 174.966H521.784V178.497H539.956V174.966Z" fill="#F9A826"/>
<path opacity="0.1" d="M539.956 202.331H521.784V205.862H539.956V202.331Z" fill="#F9A826"/>
<path opacity="0.1" d="M567.215 167.021H549.043V217.337H567.215V167.021Z" fill="#F9A826"/>
<path opacity="0.1" d="M567.215 174.966H549.043V178.497H567.215V174.966Z" fill="#F9A826"/>
<path opacity="0.1" d="M567.215 202.331H549.043V205.862H567.215V202.331Z" fill="#F9A826"/>
<path opacity="0.1" d="M680.79 167.021H662.618V217.337H680.79V167.021Z" fill="#F9A826"/>
<path opacity="0.1" d="M680.79 174.966H662.618V178.497H680.79V174.966Z" fill="#F9A826"/>
<path opacity="0.1" d="M680.79 202.331H662.618V205.862H680.79V202.331Z" fill="#F9A826"/>
<path opacity="0.1" d="M708.048 167.021H689.876V217.337H708.048V167.021Z" fill="#F9A826"/>
<path opacity="0.1" d="M708.048 174.966H689.876V178.497H708.048V174.966Z" fill="#F9A826"/>
<path opacity="0.1" d="M708.048 202.331H689.876V205.862H708.048V202.331Z" fill="#F9A826"/>
<path opacity="0.1" d="M735.307 167.021H717.135V217.337H735.307V167.021Z" fill="#F9A826"/>
<path opacity="0.1" d="M735.307 174.966H717.135V178.497H735.307V174.966Z" fill="#F9A826"/>
<path opacity="0.1" d="M735.307 202.331H717.135V205.862H735.307V202.331Z" fill="#F9A826"/>
<path opacity="0.1" d="M512.698 253.529H494.526V303.845H512.698V253.529Z" fill="#F9A826"/>
<path opacity="0.1" d="M512.698 261.474H494.526V265.005H512.698V261.474Z" fill="#F9A826"/>
<path opacity="0.1" d="M512.698 288.839H494.526V292.37H512.698V288.839Z" fill="#F9A826"/>
<path opacity="0.1" d="M539.956 253.529H521.784V303.845H539.956V253.529Z" fill="#F9A826"/>
<path opacity="0.1" d="M539.956 261.474H521.784V265.005H539.956V261.474Z" fill="#F9A826"/>
<path opacity="0.1" d="M539.956 288.839H521.784V292.37H539.956V288.839Z" fill="#F9A826"/>
<path opacity="0.1" d="M567.215 253.529H549.043V303.845H567.215V253.529Z" fill="#F9A826"/>
<path opacity="0.1" d="M567.215 261.474H549.043V265.005H567.215V261.474Z" fill="#F9A826"/>
<path opacity="0.1" d="M567.215 288.839H549.043V292.37H567.215V288.839Z" fill="#F9A826"/>
<path opacity="0.1" d="M594.473 253.529H576.301V303.845H594.473V253.529Z" fill="#F9A826"/>
<path opacity="0.1" d="M594.473 261.474H576.301V265.005H594.473V261.474Z" fill="#F9A826"/>
<path opacity="0.1" d="M594.473 288.839H576.301V292.37H594.473V288.839Z" fill="#F9A826"/>
<path opacity="0.1" d="M621.731 253.529H603.559V303.845H621.731V253.529Z" fill="#F9A826"/>
<path opacity="0.1" d="M621.731 261.474H603.559V265.005H621.731V261.474Z" fill="#F9A826"/>
<path opacity="0.1" d="M621.731 288.839H603.559V292.37H621.731V288.839Z" fill="#F9A826"/>
<path opacity="0.1" d="M648.989 253.529H630.817V303.845H648.989V253.529Z" fill="#F9A826"/>
<path opacity="0.1" d="M648.989 261.474H630.817V265.005H648.989V261.474Z" fill="#F9A826"/>
<path opacity="0.1" d="M648.989 288.839H630.817V292.37H648.989V288.839Z" fill="#F9A826"/>
<path opacity="0.1" d="M703.505 86.7636V132.595H685.333V83.4004C691.415 84.442 697.472 85.5631 703.505 86.7636Z" fill="#F9A826"/>
<path opacity="0.1" d="M703.505 90.2241H685.333V93.7551H703.505V90.2241Z" fill="#F9A826"/>
<path opacity="0.1" d="M703.505 117.589H685.333V121.12H703.505V117.589Z" fill="#F9A826"/>
<path opacity="0.1" d="M730.764 92.8899V132.613H712.592V88.6528C714.954 89.156 717.307 89.6856 719.661 90.2241C723.38 91.0715 727.081 91.9601 730.764 92.8899Z" fill="#F9A826"/>
<path opacity="0.1" d="M730.764 92.8899V93.7726H712.592V90.2417H719.661C723.38 91.0774 727.081 91.9601 730.764 92.8899Z" fill="#F9A826"/>
<path opacity="0.1" d="M730.764 117.589H712.592V121.12H730.764V117.589Z" fill="#F9A826"/>
<g opacity="0.1">
<path opacity="0.1" d="M603.913 199.047C603.913 199.047 598.407 197.229 595.735 201.952C595.037 203.23 594.681 204.659 594.702 206.106C594.723 207.554 595.119 208.973 595.853 210.232C597.598 213.286 601.187 217.294 607.983 216.905C613.753 216.605 615.67 212.333 616.161 208.351C616.349 206.862 616.143 205.351 615.563 203.961C614.983 202.57 614.048 201.346 612.846 200.404C611.644 199.463 610.214 198.834 608.692 198.578C607.171 198.322 605.607 198.447 604.149 198.942L603.913 199.047Z" fill="#F9A826"/>
<path opacity="0.1" d="M597.053 210.664C596.318 209.405 595.922 207.986 595.901 206.539C595.88 205.091 596.236 203.663 596.934 202.384C599.588 197.67 605.112 199.48 605.112 199.48L605.394 199.383C607.496 198.644 609.806 198.694 611.872 199.524C610.731 198.864 609.454 198.459 608.133 198.337C606.812 198.214 605.479 198.379 604.231 198.818L603.949 198.915C603.949 198.915 598.443 197.097 595.771 201.819C595.073 203.098 594.718 204.527 594.738 205.974C594.759 207.421 595.155 208.84 595.89 210.099C597.255 212.628 599.448 214.644 602.123 215.828C599.978 214.59 598.224 212.804 597.053 210.664Z" fill="#F9A826"/>
<path opacity="0.2" d="M601.068 201.316C601.068 201.316 603.113 202.878 608.074 201.316H601.068Z" fill="#F9A826"/>
<path opacity="0.1" d="M600.623 189.973C600.623 189.973 604.121 199.188 603.83 201.598L606.602 201.316C606.602 201.316 601.931 193.239 603.104 189.973H600.623Z" fill="#F9A826"/>
<path opacity="0.2" d="M600.623 189.973C600.623 189.973 604.121 199.188 603.83 201.598L606.602 201.316C606.602 201.316 601.931 193.239 603.104 189.973H600.623Z" fill="#F9A826"/>
<path opacity="0.1" d="M614.925 190.75C614.925 190.75 609.41 188.013 606.947 190.273C604.485 192.533 604.104 198.315 604.104 198.315C604.104 198.315 613.09 199.498 614.925 190.75Z" fill="#F9A826"/>
<path opacity="0.1" d="M614.925 190.75C614.925 190.75 609.41 188.013 606.947 190.273C604.485 192.533 604.104 198.315 604.104 198.315C604.104 198.315 613.09 199.498 614.925 190.75Z" fill="#F9A826"/>
<path opacity="0.1" d="M604.095 198.315C604.095 198.315 605.539 191.606 614.916 190.741L604.095 198.315Z" fill="#F9A826"/>
</g>
<g opacity="0.1">
<path opacity="0.1" d="M720.214 286.438C720.214 286.438 714.708 284.619 712.037 289.342C711.338 290.62 710.983 292.049 711.004 293.497C711.024 294.944 711.42 296.363 712.155 297.622C713.9 300.676 717.489 304.684 724.285 304.295C730.055 303.995 731.972 299.723 732.463 295.742C732.651 294.252 732.445 292.741 731.865 291.351C731.285 289.96 730.35 288.736 729.147 287.795C727.945 286.853 726.516 286.224 724.994 285.968C723.473 285.712 721.909 285.837 720.451 286.332L720.214 286.438Z" fill="#F9A826"/>
<path opacity="0.1" d="M713.354 298.054C712.62 296.795 712.224 295.376 712.203 293.929C712.182 292.482 712.538 291.053 713.236 289.774C715.889 285.06 721.414 286.87 721.414 286.87L721.695 286.773C723.797 286.034 726.108 286.084 728.174 286.914C727.033 286.254 725.756 285.849 724.435 285.727C723.113 285.605 721.78 285.769 720.532 286.208L720.251 286.305C720.251 286.305 714.745 284.487 712.073 289.209C711.375 290.488 711.019 291.917 711.04 293.364C711.061 294.811 711.457 296.23 712.191 297.489C713.557 300.018 715.75 302.034 718.424 303.218C716.28 301.98 714.526 300.194 713.354 298.054Z" fill="#F9A826"/>
<path opacity="0.2" d="M717.371 288.706C717.371 288.706 719.415 290.268 724.376 288.706H717.371Z" fill="#F9A826"/>
<path opacity="0.1" d="M716.925 277.363C716.925 277.363 720.423 286.579 720.132 288.988L722.904 288.706C722.904 288.706 718.233 280.629 719.405 277.363H716.925Z" fill="#F9A826"/>
<path opacity="0.2" d="M716.925 277.363C716.925 277.363 720.423 286.579 720.132 288.988L722.904 288.706C722.904 288.706 718.233 280.629 719.405 277.363H716.925Z" fill="#F9A826"/>
<path opacity="0.1" d="M731.227 278.14C731.227 278.14 725.712 275.403 723.249 277.663C720.787 279.923 720.405 285.705 720.405 285.705C720.405 285.705 729.391 286.888 731.227 278.14Z" fill="#F9A826"/>
<path opacity="0.1" d="M731.227 278.14C731.227 278.14 725.712 275.403 723.249 277.663C720.787 279.923 720.405 285.705 720.405 285.705C720.405 285.705 729.391 286.888 731.227 278.14Z" fill="#F9A826"/>
<path opacity="0.1" d="M720.396 285.705C720.396 285.705 721.841 278.996 731.218 278.131L720.396 285.705Z" fill="#F9A826"/>
</g>
<path opacity="0.1" d="M904.08 556.157C931.178 556.157 953.145 548.569 953.145 539.208C953.145 529.848 931.178 522.26 904.08 522.26C876.983 522.26 855.016 529.848 855.016 539.208C855.016 548.569 876.983 556.157 904.08 556.157Z" fill="black"/>
<path d="M904.116 539.349C904.116 539.349 932.11 447.024 898.864 379.063C884.917 350.542 880.283 318.525 886.725 287.576C889.809 272.896 894.27 258.521 900.054 244.631" stroke="#535461" stroke-width="2" stroke-miterlimit="10"/>
<path d="M879.375 201.678C879.375 212.994 900.464 245.814 900.464 245.814C900.464 245.814 921.552 213.003 921.552 201.678C921.552 196.244 919.331 191.033 915.376 187.19C911.421 183.348 906.057 181.189 900.464 181.189C894.871 181.189 889.507 183.348 885.552 187.19C881.597 191.033 879.375 196.244 879.375 201.678Z" fill="#F9A826"/>
<path d="M844.511 264.352C850.872 273.85 886.898 290.26 886.898 290.26C886.898 290.26 886.244 251.579 879.911 242.08C878.405 239.82 876.457 237.87 874.176 236.341C871.895 234.812 869.326 233.735 866.616 233.17C863.907 232.606 861.109 232.566 858.384 233.052C855.658 233.538 853.058 234.54 850.731 236.003C848.404 237.465 846.397 239.358 844.823 241.574C843.249 243.791 842.141 246.286 841.56 248.919C840.979 251.551 840.937 254.269 841.437 256.917C841.938 259.565 842.97 262.091 844.475 264.352H844.511Z" fill="#F9A826"/>
<path d="M846.01 371.462C856.414 376.556 896.065 373.034 896.065 373.034C896.065 373.034 875.404 339.967 865 334.873C862.527 333.662 859.833 332.936 857.071 332.736C854.309 332.536 851.534 332.867 848.904 333.709C846.273 334.551 843.84 335.888 841.741 337.644C839.643 339.4 837.921 341.541 836.674 343.943C835.427 346.346 834.68 348.963 834.474 351.647C834.269 354.33 834.609 357.026 835.476 359.581C836.343 362.137 837.719 364.501 839.527 366.54C841.334 368.578 843.537 370.251 846.01 371.462Z" fill="#F9A826"/>
<path d="M866 452.25C875.368 458.976 915.065 462.022 915.065 462.022C915.065 462.022 900.454 426.033 891.086 419.306C888.86 417.706 886.331 416.547 883.643 415.897C880.956 415.246 878.163 415.116 875.424 415.514C872.685 415.912 870.053 416.83 867.679 418.216C865.305 419.602 863.236 421.429 861.589 423.592C859.941 425.755 858.749 428.212 858.079 430.823C857.409 433.434 857.275 436.147 857.685 438.809C858.095 441.47 859.04 444.026 860.466 446.333C861.893 448.639 863.773 450.65 866 452.25Z" fill="#F9A826"/>
<path d="M931.183 292.449C922.833 300.332 883.936 308.497 883.936 308.497C883.936 308.497 893.467 270.937 901.817 263.054C903.8 261.165 906.149 259.674 908.727 258.669C911.305 257.664 914.062 257.163 916.84 257.196C919.617 257.229 922.361 257.795 924.913 258.861C927.465 259.927 929.775 261.472 931.711 263.409C933.646 265.345 935.169 267.633 936.191 270.143C937.214 272.652 937.715 275.333 937.668 278.032C937.621 280.73 937.025 283.393 935.915 285.867C934.805 288.342 933.203 290.578 931.201 292.449H931.183Z" fill="#F9A826"/>
<path d="M953.226 387.219C942.822 392.313 903.171 388.791 903.171 388.791C903.171 388.791 923.833 355.723 934.236 350.63C936.709 349.419 939.403 348.692 942.165 348.493C944.927 348.293 947.702 348.623 950.333 349.466C952.963 350.308 955.397 351.645 957.495 353.401C959.593 355.157 961.315 357.298 962.562 359.7C963.809 362.103 964.556 364.72 964.762 367.403C964.968 370.087 964.627 372.783 963.76 375.338C962.893 377.894 961.517 380.258 959.709 382.297C957.902 384.335 955.699 386.008 953.226 387.219Z" fill="#F9A826"/>
<path d="M961.712 482.192C952.344 488.918 912.647 491.964 912.647 491.964C912.647 491.964 927.258 455.975 936.626 449.249C938.849 447.613 941.385 446.422 944.086 445.745C946.787 445.067 949.6 444.918 952.36 445.304C955.121 445.69 957.776 446.604 960.171 447.994C962.565 449.384 964.652 451.222 966.311 453.4C967.97 455.579 969.167 458.056 969.833 460.688C970.5 463.319 970.622 466.053 970.194 468.731C969.765 471.409 968.794 473.977 967.337 476.288C965.879 478.599 963.964 480.605 961.703 482.192H961.712Z" fill="#F9A826"/>
<path opacity="0.1" d="M781.963 507.43C809.061 507.43 831.028 499.842 831.028 490.481C831.028 481.121 809.061 473.533 781.963 473.533C754.865 473.533 732.898 481.121 732.898 490.481C732.898 499.842 754.865 507.43 781.963 507.43Z" fill="black"/>
<path d="M779.973 492.891C779.973 492.891 793.084 449.637 777.511 417.797C770.89 404.483 768.895 389.441 771.823 374.931C773.27 368.054 775.362 361.32 778.074 354.814" stroke="#535461" stroke-width="2" stroke-miterlimit="10"/>
<path d="M768.379 334.688C768.379 339.984 778.256 355.361 778.256 355.361C778.256 355.361 788.132 339.984 788.132 334.688C788.132 332.142 787.091 329.7 785.238 327.9C783.385 326.099 780.872 325.088 778.251 325.088C775.631 325.088 773.117 326.099 771.264 327.9C769.411 329.7 768.37 332.142 768.37 334.688H768.379Z" fill="#F9A826"/>
<path d="M752.052 364.047C755.014 368.461 771.914 376.185 771.914 376.185C771.914 376.185 771.605 358.063 768.643 353.614C767.938 352.555 767.025 351.642 765.957 350.926C764.889 350.211 763.685 349.707 762.417 349.443C761.148 349.179 759.838 349.16 758.561 349.388C757.285 349.616 756.067 350.086 754.978 350.771C753.888 351.456 752.949 352.343 752.212 353.381C751.475 354.419 750.956 355.588 750.685 356.821C750.413 358.053 750.394 359.326 750.629 360.566C750.863 361.806 751.347 362.989 752.052 364.047Z" fill="#F9A826"/>
<path d="M752.761 414.231C757.631 416.614 776.212 414.972 776.212 414.972C776.212 414.972 766.536 399.48 761.675 397.088C760.516 396.521 759.254 396.18 757.96 396.087C756.666 395.993 755.366 396.149 754.133 396.543C751.645 397.34 749.584 399.065 748.404 401.338C747.225 403.612 747.023 406.247 747.843 408.665C748.664 411.083 750.439 413.085 752.779 414.231H752.761Z" fill="#F9A826"/>
<path d="M762.102 452.082C766.49 455.233 785.089 456.663 785.089 456.663C785.089 456.663 778.238 439.803 773.859 436.652C772.816 435.902 771.63 435.36 770.371 435.056C769.112 434.751 767.803 434.691 766.52 434.878C765.237 435.064 764.004 435.495 762.892 436.145C761.78 436.795 760.81 437.651 760.039 438.665C759.268 439.678 758.709 440.83 758.396 442.053C758.083 443.276 758.02 444.548 758.213 445.795C758.405 447.041 758.848 448.239 759.517 449.319C760.186 450.4 761.067 451.342 762.111 452.091L762.102 452.082Z" fill="#F9A826"/>
<path d="M792.658 377.218C788.741 380.908 770.506 384.739 770.506 384.739C770.506 384.739 774.976 367.137 778.883 363.447C780.763 361.674 783.291 360.699 785.91 360.736C788.53 360.773 791.027 361.82 792.853 363.646C794.678 365.472 795.682 367.928 795.644 370.473C795.606 373.018 794.528 375.445 792.648 377.218H792.658Z" fill="#F9A826"/>
<path d="M803.007 421.619C798.137 424.003 779.556 422.361 779.556 422.361C779.556 422.361 789.232 406.869 794.093 404.477C796.433 403.331 799.146 403.135 801.635 403.932C804.123 404.729 806.184 406.454 807.364 408.727C808.543 411 808.745 413.636 807.924 416.054C807.104 418.471 805.329 420.473 802.989 421.619H803.007Z" fill="#F9A826"/>
<path d="M806.941 466.083C802.552 469.234 783.953 470.664 783.953 470.664C783.953 470.664 790.804 453.804 795.183 450.653C796.226 449.903 797.411 449.359 798.67 449.054C799.929 448.749 801.237 448.688 802.521 448.874C803.804 449.06 805.037 449.49 806.149 450.139C807.261 450.788 808.231 451.643 809.003 452.656C809.775 453.669 810.334 454.82 810.649 456.043C810.963 457.267 811.026 458.538 810.834 459.784C810.643 461.031 810.2 462.229 809.532 463.31C808.864 464.39 807.984 465.333 806.941 466.083Z" fill="#F9A826"/>
<path d="M1024.87 574.411H54.7256L151.846 546.491L394.644 476.684L549.47 432.168H748.89L1024.87 574.411Z" fill="#CBCDDA"/>
<path d="M54.7251 574.411L52.1992 617.736H1026.55L1024.87 574.411H54.7251Z" fill="#CBCDDA"/>
<path opacity="0.1" d="M54.7251 574.411L52.1992 617.736H1026.55L1024.87 574.411H54.7251Z" fill="black"/>
<path d="M309.071 513.141L514.134 492.67L516.66 531.908L422.928 540.938C416.462 541.448 409.954 540.957 403.648 539.482L308.898 515.701C308.596 515.624 308.331 515.447 308.148 515.201C307.966 514.955 307.877 514.655 307.897 514.352C307.918 514.049 308.046 513.762 308.26 513.541C308.474 513.321 308.761 513.179 309.071 513.141Z" fill="#535461"/>
<path opacity="0.2" d="M309.071 513.141L514.134 492.67L516.66 531.908L422.928 540.938C416.462 541.448 409.954 540.957 403.648 539.482L308.898 515.701C308.596 515.624 308.331 515.447 308.148 515.201C307.966 514.955 307.877 514.655 307.897 514.352C307.918 514.049 308.046 513.762 308.26 513.541C308.474 513.321 308.761 513.179 309.071 513.141Z" fill="black"/>
<path d="M309.071 512.32L515.824 491.85L518.35 531.087L424.609 538.467C418.148 538.984 411.643 538.502 405.338 537.037L308.899 514.889C308.591 514.817 308.319 514.641 308.131 514.393C307.944 514.145 307.852 513.841 307.873 513.534C307.894 513.227 308.025 512.937 308.244 512.715C308.463 512.493 308.756 512.353 309.071 512.32Z" fill="#535461"/>
<path opacity="0.3" d="M358.091 513.75L467.414 502.928L468.749 523.672L419.185 527.582C415.767 527.853 412.325 527.594 408.991 526.815L358 515.101C357.84 515.061 357.699 514.968 357.602 514.838C357.505 514.708 357.458 514.549 357.468 514.389C357.479 514.228 357.547 514.077 357.661 513.96C357.774 513.844 357.926 513.769 358.091 513.75Z" fill="white"/>
<path d="M632.334 495.521C622.594 495.292 393.598 489.519 371.737 465.826C348.459 440.598 371.056 367.905 390.082 315.418C410.789 258.278 386.102 176.229 385.857 175.293L387.483 174.878C387.738 175.822 412.552 258.349 391.672 315.956C362.079 397.618 355.964 446.283 372.991 464.732C394.38 487.904 629.999 493.862 632.379 493.862L632.334 495.521Z" fill="#DFE6F5"/>
<path d="M474.019 291.84L685.851 288.715C688.582 288.986 691.229 289.782 693.64 291.058C696.05 292.334 698.175 294.064 699.889 296.146C701.604 298.229 702.874 300.622 703.626 303.187C704.378 305.752 704.596 308.436 704.268 311.084L680.236 505.461C679.661 510.131 677.417 514.457 673.895 517.684C670.373 520.91 665.796 522.833 660.964 523.116L444.453 536.136C441.387 536.315 438.319 535.827 435.472 534.709C432.625 533.59 430.07 531.87 427.993 529.671C425.917 527.473 424.371 524.853 423.468 522.001C422.565 519.149 422.328 516.137 422.774 513.185L451.522 308.903C452.293 303.794 455.061 299.169 459.25 295.992C463.44 292.814 468.73 291.327 474.019 291.84Z" fill="#535461"/>
<path opacity="0.2" d="M474.019 291.84L685.851 288.715C688.582 288.986 691.229 289.782 693.64 291.058C696.05 292.334 698.175 294.064 699.889 296.146C701.604 298.229 702.874 300.622 703.626 303.187C704.378 305.752 704.596 308.436 704.268 311.084L680.236 505.461C679.661 510.131 677.417 514.457 673.895 517.684C670.373 520.91 665.796 522.833 660.964 523.116L444.453 536.136C441.387 536.315 438.319 535.827 435.472 534.709C432.625 533.59 430.07 531.87 427.993 529.671C425.917 527.473 424.371 524.853 423.468 522.001C422.565 519.149 422.328 516.137 422.774 513.185L451.522 308.903C452.293 303.794 455.061 299.169 459.25 295.992C463.44 292.814 468.73 291.327 474.019 291.84Z" fill="black"/>
<path d="M475.7 291.84L687.532 288.715C690.266 288.982 692.918 289.775 695.333 291.049C697.747 292.323 699.876 294.052 701.594 296.135C703.313 298.217 704.586 300.612 705.34 303.179C706.094 305.746 706.314 308.433 705.986 311.084L681.953 505.461C681.379 510.131 679.135 514.457 675.613 517.684C672.091 520.91 667.514 522.833 662.682 523.116L446.143 536.136C443.078 536.315 440.01 535.827 437.162 534.709C434.315 533.59 431.76 531.87 429.684 529.671C427.607 527.473 426.061 524.853 425.158 522.001C424.255 519.149 424.018 516.137 424.464 513.185L453.212 308.903C453.983 303.796 456.75 299.173 460.938 295.995C465.125 292.817 470.412 291.329 475.7 291.84Z" fill="#535461"/>
<path opacity="0.3" d="M579.345 412.139C584.92 412.139 589.439 407.748 589.439 402.332C589.439 396.915 584.92 392.524 579.345 392.524C573.769 392.524 569.25 396.915 569.25 402.332C569.25 407.748 573.769 412.139 579.345 412.139Z" fill="white"/>
<path opacity="0.1" d="M395 502.191C357.846 505.627 317.106 503.838 317.106 503.838L275.299 513.626L157.617 543C152.492 537.3 148.393 530.137 145 522.067L156.664 510.367C187.467 486.66 194.793 392.443 198.177 363C201.313 384.101 210.77 485.883 210.77 485.883L258.224 481.804L327.17 467.707C331.918 466.736 336.782 466.248 341.663 466.254C350.641 466.254 366.62 466.421 383.685 467.214C381.41 475.152 387.252 488.79 395 502.191Z" fill="black"/>
<path opacity="0.1" d="M397.854 499.265C377.795 521.465 274.891 516.537 274.891 516.537L236.515 526.403L128.375 556C127.904 555.423 127.433 554.837 127 554.224L378.662 484C394.728 487.055 404.588 491.815 397.854 499.265Z" fill="black"/>
<path d="M277.279 396.612V450.564C277.292 459.377 274.237 467.935 268.611 474.848C267.65 476.027 266.621 477.153 265.531 478.22C261.778 481.882 257.318 484.788 252.406 486.77C247.495 488.753 242.228 489.774 236.909 489.774C231.591 489.774 226.324 488.753 221.413 486.77C216.501 484.788 212.041 481.882 208.288 478.22C207.198 477.153 206.169 476.027 205.208 474.848C199.582 467.935 196.527 459.377 196.54 450.564V396.612C196.521 387.444 199.825 378.562 205.871 371.524C206.945 370.275 208.101 369.096 209.333 367.993C216.812 361.181 226.68 357.39 236.932 357.39C247.184 357.39 257.052 361.181 264.531 367.993C264.858 368.276 265.176 368.585 265.494 368.876C266.403 369.759 267.193 370.642 267.993 371.524C274.023 378.568 277.311 387.449 277.279 396.612Z" fill="#DFE6F5"/>
<path opacity="0.1" d="M277.279 396.612V450.564C277.292 459.377 274.237 467.935 268.611 474.848C267.65 476.027 266.621 477.153 265.531 478.22C261.778 481.882 257.318 484.788 252.406 486.77C247.495 488.753 242.228 489.774 236.909 489.774C231.591 489.774 226.324 488.753 221.413 486.77C216.501 484.788 212.041 481.882 208.288 478.22C207.198 477.153 206.169 476.027 205.208 474.848C199.582 467.935 196.527 459.377 196.54 450.564V396.612C196.521 387.444 199.825 378.562 205.871 371.524C206.945 370.275 208.101 369.096 209.333 367.993C216.812 361.181 226.68 357.39 236.932 357.39C247.184 357.39 257.052 361.181 264.531 367.993C264.858 368.276 265.176 368.585 265.494 368.876C266.403 369.759 267.193 370.642 267.993 371.524C274.023 378.568 277.311 387.449 277.279 396.612Z" fill="black"/>
<path opacity="0.1" d="M220.9 372.089C222.295 372.089 223.426 370.99 223.426 369.635C223.426 368.28 222.295 367.181 220.9 367.181C219.505 367.181 218.374 368.28 218.374 369.635C218.374 370.99 219.505 372.089 220.9 372.089Z" fill="black"/>
<path d="M278.969 396.612V450.564C278.982 459.377 275.927 467.935 270.301 474.848C269.34 476.027 268.311 477.153 267.221 478.22C263.468 481.882 259.008 484.788 254.096 486.77C249.185 488.753 243.918 489.774 238.6 489.774C233.281 489.774 228.015 488.753 223.103 486.77C218.191 484.788 213.731 481.882 209.979 478.22C208.888 477.153 207.86 476.027 206.898 474.848C201.253 467.942 198.178 459.383 198.176 450.564V396.612C198.157 387.444 201.46 378.562 207.507 371.524C208.581 370.275 209.737 369.096 210.969 367.993C218.448 361.181 228.316 357.39 238.568 357.39C248.82 357.39 258.688 361.181 266.167 367.993C266.494 368.276 266.812 368.585 267.13 368.876C268.038 369.759 268.829 370.642 269.629 371.524C275.679 378.561 278.986 387.443 278.969 396.612Z" fill="#DFE6F5"/>
<path opacity="0.1" d="M220.9 380.263C222.295 380.263 223.426 379.165 223.426 377.809C223.426 376.454 222.295 375.355 220.9 375.355C219.505 375.355 218.374 376.454 218.374 377.809C218.374 379.165 219.505 380.263 220.9 380.263Z" fill="black"/>
<path opacity="0.1" d="M220.9 388.437C222.295 388.437 223.426 387.339 223.426 385.983C223.426 384.628 222.295 383.529 220.9 383.529C219.505 383.529 218.374 384.628 218.374 385.983C218.374 387.339 219.505 388.437 220.9 388.437Z" fill="black"/>
<path opacity="0.1" d="M220.9 396.612C222.295 396.612 223.426 395.513 223.426 394.158C223.426 392.802 222.295 391.704 220.9 391.704C219.505 391.704 218.374 392.802 218.374 394.158C218.374 395.513 219.505 396.612 220.9 396.612Z" fill="black"/>
<path opacity="0.1" d="M220.9 404.785C222.295 404.785 223.426 403.687 223.426 402.331C223.426 400.976 222.295 399.877 220.9 399.877C219.505 399.877 218.374 400.976 218.374 402.331C218.374 403.687 219.505 404.785 220.9 404.785Z" fill="black"/>
<path opacity="0.1" d="M220.9 412.96C222.295 412.96 223.426 411.861 223.426 410.506C223.426 409.15 222.295 408.052 220.9 408.052C219.505 408.052 218.374 409.15 218.374 410.506C218.374 411.861 219.505 412.96 220.9 412.96Z" fill="black"/>
<path opacity="0.1" d="M220.9 421.134C222.295 421.134 223.426 420.035 223.426 418.68C223.426 417.324 222.295 416.226 220.9 416.226C219.505 416.226 218.374 417.324 218.374 418.68C218.374 420.035 219.505 421.134 220.9 421.134Z" fill="black"/>
<path opacity="0.1" d="M220.9 429.317C222.295 429.317 223.426 428.218 223.426 426.863C223.426 425.507 222.295 424.409 220.9 424.409C219.505 424.409 218.374 425.507 218.374 426.863C218.374 428.218 219.505 429.317 220.9 429.317Z" fill="black"/>
<path opacity="0.1" d="M220.9 437.491C222.295 437.491 223.426 436.392 223.426 435.037C223.426 433.682 222.295 432.583 220.9 432.583C219.505 432.583 218.374 433.682 218.374 435.037C218.374 436.392 219.505 437.491 220.9 437.491Z" fill="black"/>
<path opacity="0.1" d="M220.9 445.665C222.295 445.665 223.426 444.566 223.426 443.211C223.426 441.856 222.295 440.757 220.9 440.757C219.505 440.757 218.374 441.856 218.374 443.211C218.374 444.566 219.505 445.665 220.9 445.665Z" fill="black"/>
<path opacity="0.1" d="M220.9 453.839C222.295 453.839 223.426 452.74 223.426 451.385C223.426 450.03 222.295 448.931 220.9 448.931C219.505 448.931 218.374 450.03 218.374 451.385C218.374 452.74 219.505 453.839 220.9 453.839Z" fill="black"/>
<path opacity="0.1" d="M220.9 462.013C222.295 462.013 223.426 460.914 223.426 459.559C223.426 458.204 222.295 457.105 220.9 457.105C219.505 457.105 218.374 458.204 218.374 459.559C218.374 460.914 219.505 462.013 220.9 462.013Z" fill="black"/>
<path opacity="0.1" d="M220.9 470.187C222.295 470.187 223.426 469.089 223.426 467.733C223.426 466.378 222.295 465.279 220.9 465.279C219.505 465.279 218.374 466.378 218.374 467.733C218.374 469.089 219.505 470.187 220.9 470.187Z" fill="black"/>
<path opacity="0.1" d="M220.9 478.361C222.295 478.361 223.426 477.262 223.426 475.907C223.426 474.552 222.295 473.453 220.9 473.453C219.505 473.453 218.374 474.552 218.374 475.907C218.374 477.262 219.505 478.361 220.9 478.361Z" fill="black"/>
<path opacity="0.1" d="M211.651 369.635C211.65 370.1 211.513 370.556 211.256 370.948C211 371.341 210.633 371.654 210.2 371.852C209.767 372.05 209.284 372.125 208.809 372.067C208.334 372.008 207.886 371.82 207.517 371.524C208.59 370.275 209.746 369.095 210.978 367.993C211.409 368.438 211.65 369.025 211.651 369.635Z" fill="black"/>
<path opacity="0.1" d="M209.125 380.263C210.52 380.263 211.65 379.165 211.65 377.809C211.65 376.454 210.52 375.355 209.125 375.355C207.73 375.355 206.599 376.454 206.599 377.809C206.599 379.165 207.73 380.263 209.125 380.263Z" fill="black"/>
<path opacity="0.1" d="M209.125 388.437C210.52 388.437 211.65 387.339 211.65 385.983C211.65 384.628 210.52 383.529 209.125 383.529C207.73 383.529 206.599 384.628 206.599 385.983C206.599 387.339 207.73 388.437 209.125 388.437Z" fill="black"/>
<path opacity="0.1" d="M209.125 396.612C210.52 396.612 211.65 395.513 211.65 394.158C211.65 392.802 210.52 391.704 209.125 391.704C207.73 391.704 206.599 392.802 206.599 394.158C206.599 395.513 207.73 396.612 209.125 396.612Z" fill="black"/>
<path opacity="0.1" d="M209.125 404.785C210.52 404.785 211.65 403.687 211.65 402.331C211.65 400.976 210.52 399.877 209.125 399.877C207.73 399.877 206.599 400.976 206.599 402.331C206.599 403.687 207.73 404.785 209.125 404.785Z" fill="black"/>
<path opacity="0.1" d="M209.125 412.96C210.52 412.96 211.65 411.861 211.65 410.506C211.65 409.15 210.52 408.052 209.125 408.052C207.73 408.052 206.599 409.15 206.599 410.506C206.599 411.861 207.73 412.96 209.125 412.96Z" fill="black"/>
<path opacity="0.1" d="M209.125 421.134C210.52 421.134 211.65 420.035 211.65 418.68C211.65 417.324 210.52 416.226 209.125 416.226C207.73 416.226 206.599 417.324 206.599 418.68C206.599 420.035 207.73 421.134 209.125 421.134Z" fill="black"/>
<path opacity="0.1" d="M209.125 429.317C210.52 429.317 211.65 428.218 211.65 426.863C211.65 425.507 210.52 424.409 209.125 424.409C207.73 424.409 206.599 425.507 206.599 426.863C206.599 428.218 207.73 429.317 209.125 429.317Z" fill="black"/>
<path opacity="0.1" d="M209.125 437.491C210.52 437.491 211.65 436.392 211.65 435.037C211.65 433.682 210.52 432.583 209.125 432.583C207.73 432.583 206.599 433.682 206.599 435.037C206.599 436.392 207.73 437.491 209.125 437.491Z" fill="black"/>
<path opacity="0.1" d="M209.125 445.665C210.52 445.665 211.65 444.566 211.65 443.211C211.65 441.856 210.52 440.757 209.125 440.757C207.73 440.757 206.599 441.856 206.599 443.211C206.599 444.566 207.73 445.665 209.125 445.665Z" fill="black"/>
<path opacity="0.1" d="M209.125 453.839C210.52 453.839 211.65 452.74 211.65 451.385C211.65 450.03 210.52 448.931 209.125 448.931C207.73 448.931 206.599 450.03 206.599 451.385C206.599 452.74 207.73 453.839 209.125 453.839Z" fill="black"/>
<path opacity="0.1" d="M209.125 462.013C210.52 462.013 211.65 460.914 211.65 459.559C211.65 458.204 210.52 457.105 209.125 457.105C207.73 457.105 206.599 458.204 206.599 459.559C206.599 460.914 207.73 462.013 209.125 462.013Z" fill="black"/>
<path opacity="0.1" d="M209.125 470.187C210.52 470.187 211.65 469.089 211.65 467.733C211.65 466.378 210.52 465.279 209.125 465.279C207.73 465.279 206.599 466.378 206.599 467.733C206.599 469.089 207.73 470.187 209.125 470.187Z" fill="black"/>
<path opacity="0.1" d="M211.65 475.907C211.651 476.42 211.485 476.921 211.177 477.337C210.869 477.754 210.433 478.066 209.933 478.229C208.842 477.162 207.814 476.036 206.853 474.857C207.095 474.351 207.509 473.942 208.024 473.696C208.54 473.45 209.126 473.383 209.687 473.506C210.247 473.628 210.747 473.933 211.104 474.37C211.461 474.807 211.654 475.349 211.65 475.907Z" fill="black"/>
<path opacity="0.1" d="M232.684 372.089C234.079 372.089 235.21 370.99 235.21 369.635C235.21 368.28 234.079 367.181 232.684 367.181C231.289 367.181 230.158 368.28 230.158 369.635C230.158 370.99 231.289 372.089 232.684 372.089Z" fill="black"/>
<path opacity="0.1" d="M232.684 380.263C234.079 380.263 235.21 379.165 235.21 377.809C235.21 376.454 234.079 375.355 232.684 375.355C231.289 375.355 230.158 376.454 230.158 377.809C230.158 379.165 231.289 380.263 232.684 380.263Z" fill="black"/>
<path opacity="0.1" d="M232.684 388.437C234.079 388.437 235.21 387.339 235.21 385.983C235.21 384.628 234.079 383.529 232.684 383.529C231.289 383.529 230.158 384.628 230.158 385.983C230.158 387.339 231.289 388.437 232.684 388.437Z" fill="black"/>
<path opacity="0.1" d="M232.684 396.612C234.079 396.612 235.21 395.513 235.21 394.158C235.21 392.802 234.079 391.704 232.684 391.704C231.289 391.704 230.158 392.802 230.158 394.158C230.158 395.513 231.289 396.612 232.684 396.612Z" fill="black"/>
<path opacity="0.1" d="M232.684 404.785C234.079 404.785 235.21 403.687 235.21 402.331C235.21 400.976 234.079 399.877 232.684 399.877C231.289 399.877 230.158 400.976 230.158 402.331C230.158 403.687 231.289 404.785 232.684 404.785Z" fill="black"/>
<path opacity="0.1" d="M232.684 412.96C234.079 412.96 235.21 411.861 235.21 410.506C235.21 409.15 234.079 408.052 232.684 408.052C231.289 408.052 230.158 409.15 230.158 410.506C230.158 411.861 231.289 412.96 232.684 412.96Z" fill="black"/>
<path opacity="0.1" d="M232.684 421.134C234.079 421.134 235.21 420.035 235.21 418.68C235.21 417.324 234.079 416.226 232.684 416.226C231.289 416.226 230.158 417.324 230.158 418.68C230.158 420.035 231.289 421.134 232.684 421.134Z" fill="black"/>
<path opacity="0.1" d="M232.684 429.317C234.079 429.317 235.21 428.218 235.21 426.863C235.21 425.507 234.079 424.409 232.684 424.409C231.289 424.409 230.158 425.507 230.158 426.863C230.158 428.218 231.289 429.317 232.684 429.317Z" fill="black"/>
<path opacity="0.1" d="M232.684 437.491C234.079 437.491 235.21 436.392 235.21 435.037C235.21 433.682 234.079 432.583 232.684 432.583C231.289 432.583 230.158 433.682 230.158 435.037C230.158 436.392 231.289 437.491 232.684 437.491Z" fill="black"/>
<path opacity="0.1" d="M232.684 445.665C234.079 445.665 235.21 444.566 235.21 443.211C235.21 441.856 234.079 440.757 232.684 440.757C231.289 440.757 230.158 441.856 230.158 443.211C230.158 444.566 231.289 445.665 232.684 445.665Z" fill="black"/>
<path opacity="0.1" d="M232.684 453.839C234.079 453.839 235.21 452.74 235.21 451.385C235.21 450.03 234.079 448.931 232.684 448.931C231.289 448.931 230.158 450.03 230.158 451.385C230.158 452.74 231.289 453.839 232.684 453.839Z" fill="black"/>
<path opacity="0.1" d="M232.684 462.013C234.079 462.013 235.21 460.914 235.21 459.559C235.21 458.204 234.079 457.105 232.684 457.105C231.289 457.105 230.158 458.204 230.158 459.559C230.158 460.914 231.289 462.013 232.684 462.013Z" fill="black"/>
<path opacity="0.1" d="M232.684 470.187C234.079 470.187 235.21 469.089 235.21 467.733C235.21 466.378 234.079 465.279 232.684 465.279C231.289 465.279 230.158 466.378 230.158 467.733C230.158 469.089 231.289 470.187 232.684 470.187Z" fill="black"/>
<path opacity="0.1" d="M232.684 478.361C234.079 478.361 235.21 477.262 235.21 475.907C235.21 474.552 234.079 473.453 232.684 473.453C231.289 473.453 230.158 474.552 230.158 475.907C230.158 477.262 231.289 478.361 232.684 478.361Z" fill="black"/>
<path opacity="0.1" d="M244.46 372.089C245.856 372.089 246.986 370.99 246.986 369.635C246.986 368.28 245.856 367.181 244.46 367.181C243.065 367.181 241.935 368.28 241.935 369.635C241.935 370.99 243.065 372.089 244.46 372.089Z" fill="black"/>
<path opacity="0.1" d="M244.46 380.263C245.856 380.263 246.986 379.165 246.986 377.809C246.986 376.454 245.856 375.355 244.46 375.355C243.065 375.355 241.935 376.454 241.935 377.809C241.935 379.165 243.065 380.263 244.46 380.263Z" fill="black"/>
<path opacity="0.1" d="M244.46 388.437C245.856 388.437 246.986 387.339 246.986 385.983C246.986 384.628 245.856 383.529 244.46 383.529C243.065 383.529 241.935 384.628 241.935 385.983C241.935 387.339 243.065 388.437 244.46 388.437Z" fill="black"/>
<path opacity="0.1" d="M244.46 396.612C245.856 396.612 246.986 395.513 246.986 394.158C246.986 392.802 245.856 391.704 244.46 391.704C243.065 391.704 241.935 392.802 241.935 394.158C241.935 395.513 243.065 396.612 244.46 396.612Z" fill="black"/>
<path opacity="0.1" d="M244.46 404.785C245.856 404.785 246.986 403.687 246.986 402.331C246.986 400.976 245.856 399.877 244.46 399.877C243.065 399.877 241.935 400.976 241.935 402.331C241.935 403.687 243.065 404.785 244.46 404.785Z" fill="black"/>
<path opacity="0.1" d="M244.46 412.96C245.856 412.96 246.986 411.861 246.986 410.506C246.986 409.15 245.856 408.052 244.46 408.052C243.065 408.052 241.935 409.15 241.935 410.506C241.935 411.861 243.065 412.96 244.46 412.96Z" fill="black"/>
<path opacity="0.1" d="M244.46 421.134C245.856 421.134 246.986 420.035 246.986 418.68C246.986 417.324 245.856 416.226 244.46 416.226C243.065 416.226 241.935 417.324 241.935 418.68C241.935 420.035 243.065 421.134 244.46 421.134Z" fill="black"/>
<path opacity="0.1" d="M244.46 429.317C245.856 429.317 246.986 428.218 246.986 426.863C246.986 425.507 245.856 424.409 244.46 424.409C243.065 424.409 241.935 425.507 241.935 426.863C241.935 428.218 243.065 429.317 244.46 429.317Z" fill="black"/>
<path opacity="0.1" d="M244.46 437.491C245.856 437.491 246.986 436.392 246.986 435.037C246.986 433.682 245.856 432.583 244.46 432.583C243.065 432.583 241.935 433.682 241.935 435.037C241.935 436.392 243.065 437.491 244.46 437.491Z" fill="black"/>
<path opacity="0.1" d="M244.46 445.665C245.856 445.665 246.986 444.566 246.986 443.211C246.986 441.856 245.856 440.757 244.46 440.757C243.065 440.757 241.935 441.856 241.935 443.211C241.935 444.566 243.065 445.665 244.46 445.665Z" fill="black"/>
<path opacity="0.1" d="M244.46 453.839C245.856 453.839 246.986 452.74 246.986 451.385C246.986 450.03 245.856 448.931 244.46 448.931C243.065 448.931 241.935 450.03 241.935 451.385C241.935 452.74 243.065 453.839 244.46 453.839Z" fill="black"/>
<path opacity="0.1" d="M244.46 462.013C245.856 462.013 246.986 460.914 246.986 459.559C246.986 458.204 245.856 457.105 244.46 457.105C243.065 457.105 241.935 458.204 241.935 459.559C241.935 460.914 243.065 462.013 244.46 462.013Z" fill="black"/>
<path opacity="0.1" d="M244.46 470.187C245.856 470.187 246.986 469.089 246.986 467.733C246.986 466.378 245.856 465.279 244.46 465.279C243.065 465.279 241.935 466.378 241.935 467.733C241.935 469.089 243.065 470.187 244.46 470.187Z" fill="black"/>
<path opacity="0.1" d="M244.46 478.361C245.856 478.361 246.986 477.262 246.986 475.907C246.986 474.552 245.856 473.453 244.46 473.453C243.065 473.453 241.935 474.552 241.935 475.907C241.935 477.262 243.065 478.361 244.46 478.361Z" fill="black"/>
<path opacity="0.1" d="M256.245 372.089C257.64 372.089 258.771 370.99 258.771 369.635C258.771 368.28 257.64 367.181 256.245 367.181C254.85 367.181 253.719 368.28 253.719 369.635C253.719 370.99 254.85 372.089 256.245 372.089Z" fill="black"/>
<path opacity="0.1" d="M256.245 380.263C257.64 380.263 258.771 379.165 258.771 377.809C258.771 376.454 257.64 375.355 256.245 375.355C254.85 375.355 253.719 376.454 253.719 377.809C253.719 379.165 254.85 380.263 256.245 380.263Z" fill="black"/>
<path opacity="0.1" d="M256.245 388.437C257.64 388.437 258.771 387.339 258.771 385.983C258.771 384.628 257.64 383.529 256.245 383.529C254.85 383.529 253.719 384.628 253.719 385.983C253.719 387.339 254.85 388.437 256.245 388.437Z" fill="black"/>
<path opacity="0.1" d="M256.245 396.612C257.64 396.612 258.771 395.513 258.771 394.158C258.771 392.802 257.64 391.704 256.245 391.704C254.85 391.704 253.719 392.802 253.719 394.158C253.719 395.513 254.85 396.612 256.245 396.612Z" fill="black"/>
<path opacity="0.1" d="M256.245 404.785C257.64 404.785 258.771 403.687 258.771 402.331C258.771 400.976 257.64 399.877 256.245 399.877C254.85 399.877 253.719 400.976 253.719 402.331C253.719 403.687 254.85 404.785 256.245 404.785Z" fill="black"/>
<path opacity="0.1" d="M256.245 412.96C257.64 412.96 258.771 411.861 258.771 410.506C258.771 409.15 257.64 408.052 256.245 408.052C254.85 408.052 253.719 409.15 253.719 410.506C253.719 411.861 254.85 412.96 256.245 412.96Z" fill="black"/>
<path opacity="0.1" d="M256.245 421.134C257.64 421.134 258.771 420.035 258.771 418.68C258.771 417.324 257.64 416.226 256.245 416.226C254.85 416.226 253.719 417.324 253.719 418.68C253.719 420.035 254.85 421.134 256.245 421.134Z" fill="black"/>
<path opacity="0.1" d="M256.245 429.317C257.64 429.317 258.771 428.218 258.771 426.863C258.771 425.507 257.64 424.409 256.245 424.409C254.85 424.409 253.719 425.507 253.719 426.863C253.719 428.218 254.85 429.317 256.245 429.317Z" fill="black"/>
<path opacity="0.1" d="M256.245 437.491C257.64 437.491 258.771 436.392 258.771 435.037C258.771 433.682 257.64 432.583 256.245 432.583C254.85 432.583 253.719 433.682 253.719 435.037C253.719 436.392 254.85 437.491 256.245 437.491Z" fill="black"/>
<path opacity="0.1" d="M256.245 445.665C257.64 445.665 258.771 444.566 258.771 443.211C258.771 441.856 257.64 440.757 256.245 440.757C254.85 440.757 253.719 441.856 253.719 443.211C253.719 444.566 254.85 445.665 256.245 445.665Z" fill="black"/>
<path opacity="0.1" d="M256.245 453.839C257.64 453.839 258.771 452.74 258.771 451.385C258.771 450.03 257.64 448.931 256.245 448.931C254.85 448.931 253.719 450.03 253.719 451.385C253.719 452.74 254.85 453.839 256.245 453.839Z" fill="black"/>
<path opacity="0.1" d="M256.245 462.013C257.64 462.013 258.771 460.914 258.771 459.559C258.771 458.204 257.64 457.105 256.245 457.105C254.85 457.105 253.719 458.204 253.719 459.559C253.719 460.914 254.85 462.013 256.245 462.013Z" fill="black"/>
<path opacity="0.1" d="M256.245 470.187C257.64 470.187 258.771 469.089 258.771 467.733C258.771 466.378 257.64 465.279 256.245 465.279C254.85 465.279 253.719 466.378 253.719 467.733C253.719 469.089 254.85 470.187 256.245 470.187Z" fill="black"/>
<path opacity="0.1" d="M256.245 478.361C257.64 478.361 258.771 477.262 258.771 475.907C258.771 474.552 257.64 473.453 256.245 473.453C254.85 473.453 253.719 474.552 253.719 475.907C253.719 477.262 254.85 478.361 256.245 478.361Z" fill="black"/>
<path opacity="0.1" d="M269.637 371.524C269.268 371.82 268.82 372.009 268.345 372.067C267.869 372.125 267.387 372.05 266.954 371.853C266.521 371.655 266.154 371.341 265.897 370.948C265.64 370.556 265.504 370.1 265.503 369.635C265.499 369.019 265.74 368.424 266.175 367.976C266.502 368.258 266.82 368.567 267.138 368.858C268.011 369.723 268.838 370.606 269.637 371.524Z" fill="black"/>
<path opacity="0.1" d="M268.02 380.263C269.415 380.263 270.546 379.165 270.546 377.809C270.546 376.454 269.415 375.355 268.02 375.355C266.625 375.355 265.494 376.454 265.494 377.809C265.494 379.165 266.625 380.263 268.02 380.263Z" fill="black"/>
<path opacity="0.1" d="M268.02 388.437C269.415 388.437 270.546 387.339 270.546 385.983C270.546 384.628 269.415 383.529 268.02 383.529C266.625 383.529 265.494 384.628 265.494 385.983C265.494 387.339 266.625 388.437 268.02 388.437Z" fill="black"/>
<path opacity="0.1" d="M268.02 396.612C269.415 396.612 270.546 395.513 270.546 394.158C270.546 392.802 269.415 391.704 268.02 391.704C266.625 391.704 265.494 392.802 265.494 394.158C265.494 395.513 266.625 396.612 268.02 396.612Z" fill="black"/>
<path opacity="0.1" d="M268.02 404.785C269.415 404.785 270.546 403.687 270.546 402.331C270.546 400.976 269.415 399.877 268.02 399.877C266.625 399.877 265.494 400.976 265.494 402.331C265.494 403.687 266.625 404.785 268.02 404.785Z" fill="black"/>
<path opacity="0.1" d="M268.02 412.96C269.415 412.96 270.546 411.861 270.546 410.506C270.546 409.15 269.415 408.052 268.02 408.052C266.625 408.052 265.494 409.15 265.494 410.506C265.494 411.861 266.625 412.96 268.02 412.96Z" fill="black"/>
<path opacity="0.1" d="M268.02 421.134C269.415 421.134 270.546 420.035 270.546 418.68C270.546 417.324 269.415 416.226 268.02 416.226C266.625 416.226 265.494 417.324 265.494 418.68C265.494 420.035 266.625 421.134 268.02 421.134Z" fill="black"/>
<path opacity="0.1" d="M268.02 429.317C269.415 429.317 270.546 428.218 270.546 426.863C270.546 425.507 269.415 424.409 268.02 424.409C266.625 424.409 265.494 425.507 265.494 426.863C265.494 428.218 266.625 429.317 268.02 429.317Z" fill="black"/>
<path opacity="0.1" d="M268.02 437.491C269.415 437.491 270.546 436.392 270.546 435.037C270.546 433.682 269.415 432.583 268.02 432.583C266.625 432.583 265.494 433.682 265.494 435.037C265.494 436.392 266.625 437.491 268.02 437.491Z" fill="black"/>
<path opacity="0.1" d="M268.02 445.665C269.415 445.665 270.546 444.566 270.546 443.211C270.546 441.856 269.415 440.757 268.02 440.757C266.625 440.757 265.494 441.856 265.494 443.211C265.494 444.566 266.625 445.665 268.02 445.665Z" fill="black"/>
<path opacity="0.1" d="M268.02 453.839C269.415 453.839 270.546 452.74 270.546 451.385C270.546 450.03 269.415 448.931 268.02 448.931C266.625 448.931 265.494 450.03 265.494 451.385C265.494 452.74 266.625 453.839 268.02 453.839Z" fill="black"/>
<path opacity="0.1" d="M268.02 462.013C269.415 462.013 270.546 460.914 270.546 459.559C270.546 458.204 269.415 457.105 268.02 457.105C266.625 457.105 265.494 458.204 265.494 459.559C265.494 460.914 266.625 462.013 268.02 462.013Z" fill="black"/>
<path opacity="0.1" d="M268.02 470.187C269.415 470.187 270.546 469.089 270.546 467.733C270.546 466.378 269.415 465.279 268.02 465.279C266.625 465.279 265.494 466.378 265.494 467.733C265.494 469.089 266.625 470.187 268.02 470.187Z" fill="black"/>
<path opacity="0.1" d="M270.301 474.848C269.34 476.027 268.311 477.153 267.221 478.22C266.824 478.092 266.465 477.871 266.178 477.575C265.891 477.28 265.684 476.92 265.575 476.527C265.466 476.135 265.46 475.722 265.556 475.327C265.652 474.931 265.847 474.565 266.125 474.261C266.403 473.957 266.754 473.725 267.146 473.585C267.539 473.446 267.962 473.403 268.376 473.461C268.79 473.519 269.182 473.677 269.518 473.919C269.854 474.161 270.123 474.48 270.301 474.848Z" fill="black"/>
<path d="M237.873 446.477H235.91C233.201 446.477 231.004 448.611 231.004 451.244V551.248C231.004 553.881 233.201 556.015 235.91 556.015H237.873C240.583 556.015 242.779 553.881 242.779 551.248V451.244C242.779 448.611 240.583 446.477 237.873 446.477Z" fill="#54576B"/>
<path d="M270.964 541.3H202.819C199.331 541.3 196.504 544.047 196.504 547.435V549.88C196.504 553.269 199.331 556.015 202.819 556.015H270.964C274.452 556.015 277.279 553.269 277.279 549.88V547.435C277.279 544.047 274.452 541.3 270.964 541.3Z" fill="#54576B"/>
<path opacity="0.1" d="M237.873 446.477H235.91C233.201 446.477 231.004 448.611 231.004 451.244V551.248C231.004 553.881 233.201 556.015 235.91 556.015H237.873C240.583 556.015 242.779 553.881 242.779 551.248V451.244C242.779 448.611 240.583 446.477 237.873 446.477Z" fill="black"/>
<path opacity="0.1" d="M270.964 541.3H202.819C199.331 541.3 196.504 544.047 196.504 547.435V549.88C196.504 553.269 199.331 556.015 202.819 556.015H270.964C274.452 556.015 277.279 553.269 277.279 549.88V547.435C277.279 544.047 274.452 541.3 270.964 541.3Z" fill="black"/>
<path d="M272.645 541.3H204.499C201.012 541.3 198.185 544.047 198.185 547.435V549.88C198.185 553.269 201.012 556.015 204.499 556.015H272.645C276.132 556.015 278.96 553.269 278.96 549.88V547.435C278.96 544.047 276.132 541.3 272.645 541.3Z" fill="#54576B"/>
<path opacity="0.1" d="M238.573 460.371C240.429 460.371 241.935 458.909 241.935 457.105C241.935 455.301 240.429 453.839 238.573 453.839C236.716 453.839 235.211 455.301 235.211 457.105C235.211 458.909 236.716 460.371 238.573 460.371Z" fill="black"/>
<path opacity="0.2" d="M396.333 538.034C397.031 538.034 397.596 537.485 397.596 536.807C397.596 536.129 397.031 535.58 396.333 535.58C395.636 535.58 395.07 536.129 395.07 536.807C395.07 537.485 395.636 538.034 396.333 538.034Z" fill="black"/>
<path d="M728.547 511.905C728.547 511.905 714.118 507.156 707.176 519.505C705.345 522.854 704.413 526.597 704.467 530.388C704.521 534.18 705.559 537.896 707.485 541.194C712.028 549.2 721.441 559.599 739.286 558.672C754.387 557.887 759.412 546.693 760.775 536.277C761.297 532.372 760.779 528.402 759.27 524.747C757.76 521.092 755.311 517.874 752.155 515.403C748.999 512.931 745.243 511.288 741.246 510.631C737.249 509.973 733.145 510.324 729.328 511.649L728.547 511.905Z" fill="#F9A826"/>
<path opacity="0.1" d="M710.538 542.306C708.612 539.008 707.573 535.292 707.519 531.5C707.465 527.709 708.397 523.966 710.229 520.617C717.17 508.259 731.599 513.017 731.599 513.017L732.335 512.761C737.837 510.827 743.883 510.96 749.29 513.132C746.306 511.406 742.966 510.345 739.509 510.024C736.053 509.704 732.566 510.132 729.3 511.278L728.564 511.534C728.564 511.534 714.136 506.785 707.194 519.134C705.362 522.483 704.431 526.226 704.485 530.017C704.539 533.809 705.577 537.525 707.503 540.823C710.51 546.12 715.608 552.396 723.858 555.83C718.228 552.591 713.62 547.913 710.538 542.306Z" fill="white"/>
<path opacity="0.2" d="M721.096 517.846C721.096 517.846 726.447 521.933 739.431 517.846H721.096Z" fill="black"/>
<path d="M719.951 488.151C719.951 488.151 729.119 512.276 728.356 518.587L735.625 517.846C735.625 517.846 723.349 496.687 726.448 488.151H719.951Z" fill="#F9A826"/>
<path opacity="0.2" d="M719.951 488.151C719.951 488.151 729.119 512.276 728.356 518.587L735.625 517.846C735.625 517.846 723.349 496.687 726.448 488.151H719.951Z" fill="black"/>
<path d="M757.377 490.163C757.377 490.163 742.948 482.996 736.479 488.919C730.01 494.842 729.028 509.981 729.028 509.981C729.028 509.981 752.57 513.132 757.377 490.163Z" fill="#F9A826"/>
<path d="M393.281 504.977C374.175 526.224 283.017 516.019 283.017 516.019L248.347 523.947L150.543 548.121C140.499 512.5 131.618 449.981 134.578 419.993C135.377 411.941 136 412.5 136 412.5C136 412.5 175.931 409.92 186 410.5C188.408 414.473 187.491 418.692 189 425C194.878 453.126 197.398 490.123 193.932 491.402L236.256 490.966L293.371 479.95C297.306 479.19 301.309 478.926 305.296 479.161C328.624 480.574 409.678 486.738 393.281 504.977Z" fill="#FFB9B9"/>
<path opacity="0.1" d="M436.964 381.774C436.029 382.307 438.5 385.5 432.16 390.77C420.738 400.266 394.5 401.5 394.5 401.5C394.5 401.5 392.2 397.516 391.386 397.792C390.37 393.564 392.908 391.712 392.651 387.5C405.214 387.047 414.783 386.05 435.057 375.976L436.964 381.774Z" fill="black"/>
<path opacity="0.1" d="M757.377 490.163C757.377 490.163 742.948 482.996 736.479 488.919C730.01 494.842 729.028 509.981 729.028 509.981C729.028 509.981 752.57 513.132 757.377 490.163Z" fill="white"/>
<path d="M729.037 509.981C729.037 509.981 732.826 492.406 757.376 490.164" stroke="#F9A826" stroke-miterlimit="10"/>
<path d="M239.554 446.477H237.591C234.881 446.477 232.685 448.611 232.685 451.244V551.248C232.685 553.881 234.881 556.015 237.591 556.015H239.554C242.263 556.015 244.46 553.881 244.46 551.248V451.244C244.46 448.611 242.263 446.477 239.554 446.477Z" fill="#54576B"/>
<path d="M348.686 561.488C343.663 561.519 338.697 560.46 334.149 558.39C317.194 550.64 308.835 551.619 296.187 553.094C284.334 554.681 272.347 555.104 260.406 554.356C257.076 554.206 253.823 553.335 250.884 551.808C247.944 550.281 245.393 548.136 243.415 545.529C224.662 521.871 237.21 459.586 237.755 456.946C237.811 456.746 237.943 456.574 238.125 456.465C238.307 456.355 238.524 456.317 238.734 456.357C238.943 456.398 239.13 456.514 239.255 456.682C239.38 456.85 239.435 457.058 239.408 457.264C239.281 457.9 226.461 521.456 244.751 544.522C246.583 546.946 248.949 548.942 251.676 550.364C254.404 551.786 257.423 552.598 260.515 552.74C272.341 553.477 284.213 553.055 295.951 551.478C308.889 549.96 317.439 548.954 334.83 556.907C362.57 569.592 395.08 537.328 395.398 537.001C395.557 536.867 395.763 536.796 395.974 536.802C396.186 536.808 396.387 536.89 396.539 537.033C396.69 537.176 396.781 537.369 396.794 537.574C396.806 537.779 396.739 537.981 396.606 538.14C396.361 538.423 373.109 561.488 348.686 561.488Z" fill="#DFE6F5"/>
<path d="M308.717 455.746C302.402 469.094 292.278 480.403 279.548 488.33C266.817 496.257 252.013 500.471 236.891 500.471C221.77 500.471 206.966 496.257 194.235 488.33C181.505 480.403 171.381 469.094 165.066 455.746C156.698 444.085 149.384 420.834 149.384 423.597C149.384 434.761 151.647 445.816 156.045 456.131C160.443 466.445 166.888 475.818 175.014 483.712C183.14 491.606 192.787 497.869 203.404 502.141C214.021 506.414 225.4 508.613 236.891 508.613C248.383 508.613 259.762 506.414 270.379 502.141C280.996 497.869 290.643 491.606 298.769 483.712C306.895 475.818 313.34 466.445 317.738 456.131C322.136 445.816 324.399 434.761 324.399 423.597C324.399 420.834 317.085 444.085 308.717 455.746Z" fill="#54576B"/>
<path d="M236.891 338.572C222.775 338.575 208.87 341.898 196.362 348.255C183.855 354.613 173.117 363.817 165.066 375.082C160.267 385.157 157.786 396.128 157.797 407.231C157.797 409.961 157.945 412.69 158.242 415.405C160.22 396.477 169.359 378.937 183.889 366.181C198.418 353.426 217.304 346.365 236.886 346.365C256.469 346.365 275.354 353.426 289.884 366.181C304.413 378.937 313.553 396.477 315.531 415.405C315.827 412.69 315.976 409.961 315.976 407.231C315.987 396.128 313.506 385.157 308.707 375.082C300.657 363.818 289.92 354.615 277.414 348.257C264.909 341.9 251.005 338.577 236.891 338.572Z" fill="#54576B"/>
<path opacity="0.1" d="M190.807 426.61C185.814 425.941 174.126 423.727 165.402 424.901C154.29 426.396 151.517 427.1 143.636 427.554C135.756 428.007 133.894 427.705 134.256 421.087C134.511 415.794 135.94 410.821 135.94 410.821C154.421 412.626 182.591 404.327 185.936 410.557C189.28 416.788 188.873 422.572 190.807 426.61Z" fill="black"/>
</g>
<defs>
<clipPath id="clip0">
<rect width="1036" height="685" fill="white"/>
</clipPath>
</defs>
</svg>
